<svg width="20" height="20" viewBox="0 0 20 20" fill="none" xmlns="http://www.w3.org/2000/svg">
<path d="M11.6744 2.56652C10.8437 1.33299 9.00594 1.37483 8.25634 2.67189L1.92604 15.3385L1.8632 15.4557C1.22074 16.754 2.1778 18.3333 3.68127 18.3333H16.3179L16.4531 18.329C17.9224 18.235 18.8124 16.6175 18.0604 15.3162L11.754 2.69413L11.6744 2.56652ZM9.04714 2.98207C9.53814 2.3055 10.5884 2.34109 11.0205 3.08886L17.3269 15.711L17.3778 15.8086C17.7466 16.5951 17.1891 17.5 16.3179 17.5H3.68127L3.57402 17.4954C2.72981 17.4218 2.22412 16.4866 2.65952 15.7332L8.98376 3.07875L9.04714 2.98207ZM9.99935 14.1667C10.2039 14.1667 10.374 14.3141 10.4093 14.5084L10.416 14.5833V15.4167C10.416 15.6468 10.2295 15.8333 9.99935 15.8333C9.7948 15.8333 9.62467 15.6859 9.5894 15.4916L9.58268 15.4167V14.5833C9.58268 14.3532 9.76923 14.1667 9.99935 14.1667ZM10.4093 8.25844C10.374 8.06407 10.2039 7.91667 9.99935 7.91667C9.76923 7.91667 9.58268 8.10322 9.58268 8.33334V12.5L9.5894 12.5749C9.62467 12.7693 9.7948 12.9167 9.99935 12.9167C10.2295 12.9167 10.416 12.7301 10.416 12.5V8.33334L10.4093 8.25844Z" fill="white"/>
</svg>
