<svg width="21" height="20" viewBox="0 0 21 20" fill="none" xmlns="http://www.w3.org/2000/svg">
<path d="M9.55399 1.91886C10.095 1.60853 10.7499 1.58466 11.3088 1.84743L11.4464 1.9191L17.0483 5.14076C17.5949 5.4551 17.947 6.01809 17.9945 6.63996L18 6.78443V13.2169C18 13.8474 17.687 14.433 17.1709 14.7846L17.0483 14.8614L11.446 18.0825C10.905 18.3928 10.2501 18.4167 9.69122 18.1539L9.55364 18.0823L3.95058 14.8613C3.40468 14.5467 3.05296 13.9836 3.0055 13.3615L3 13.2169V6.78443C3 6.15491 3.31284 5.5694 3.82838 5.21768L3.9509 5.14075L9.55399 1.91886ZM17.1579 6.65029L14.5283 8.10008L14.5288 11.2844C14.5288 11.489 14.3813 11.6591 14.1869 11.6944L14.112 11.7011C13.9073 11.7011 13.7372 11.5537 13.7019 11.3593L13.6951 11.2844L13.695 8.56008L10.9392 10.0801L10.9145 17.4175L11.0308 17.3599L16.6326 14.1391C16.9298 13.9682 17.1244 13.6663 17.1604 13.3301L17.1664 13.2169V6.78443C17.1664 6.73924 17.1635 6.69445 17.1579 6.65029ZM3.83606 6.71229L3.83361 6.78443V13.2169C3.83361 13.5594 3.99843 13.8786 4.27153 14.0774L4.3665 14.1391L9.96885 17.3597C10.0054 17.3807 10.0429 17.3993 10.0811 17.4156L10.1058 10.0792L3.84334 6.64104L3.83606 6.71229ZM6.94 4.38258L4.36686 5.86292C4.33357 5.8821 4.30157 5.90293 4.27094 5.92526L10.5232 9.35836L13.2525 7.85175L6.94 4.38258ZM10.0814 2.58556L9.96924 2.64144L7.78667 3.89591L14.1167 7.37508L16.7356 5.93054L16.6326 5.86309L11.0311 2.64166C10.7385 2.47383 10.3869 2.45518 10.0814 2.58556Z" fill="white"/>
</svg>
