<svg width="20" height="20" viewBox="0 0 20 20" fill="none" xmlns="http://www.w3.org/2000/svg">
<path d="M18.3903 9.99999C18.3903 5.88587 14.9997 2.55072 10.8172 2.55072C6.80999 2.55072 3.52969 5.61227 3.26186 9.48719L2.39276 8.00532C2.27745 7.80886 2.02574 7.74142 1.82766 7.85392L1.75471 7.90426C1.60622 8.03197 1.56558 8.25139 1.66823 8.42628L3.35182 11.2947C3.46713 11.4912 3.71884 11.5586 3.91692 11.4461L3.97845 11.4052L4.05908 11.3292L4.0927 11.2878L6.02528 8.57287L6.06548 8.50288C6.14578 8.32479 6.08991 8.10932 5.92332 7.99458L5.85179 7.9533C5.67368 7.87259 5.45809 7.92662 5.34076 8.09144L4.08731 9.8512C4.16774 6.26292 7.15003 3.37842 10.8172 3.37842C14.535 3.37842 17.5488 6.34299 17.5488 9.99999C17.5488 13.657 14.535 16.6216 10.8172 16.6216C8.65617 16.6216 6.73295 15.6199 5.50127 14.0627L5.4491 14.0053C5.37361 13.9345 5.27141 13.8911 5.15891 13.8911C4.92655 13.8911 4.73818 14.0763 4.73818 14.3049C4.73818 14.3861 4.76198 14.4619 4.80309 14.5258L4.82586 14.5578L4.9918 14.7601C6.38093 16.4032 8.47489 17.4493 10.8172 17.4493C14.9997 17.4493 18.3903 14.1141 18.3903 9.99999ZM10.8042 4.94443C10.8042 4.71586 10.6189 4.53058 10.3904 4.53058C10.1618 4.53058 9.97653 4.71586 9.97653 4.94443V10.4276C9.97653 10.6561 10.1618 10.8414 10.3904 10.8414H14.1122C14.3423 10.8414 14.5289 10.6549 14.5289 10.4248L14.5221 10.3418C14.4869 10.1474 14.3167 9.99999 14.1122 9.99999L10.804 9.99974L10.8042 4.94443Z" fill="white"/>
</svg>
